<?xml version="1.0" encoding="utf-8"?>
<!-- Generator: Adobe Illustrator 21.0.0, SVG Export Plug-In . SVG Version: 6.00 Build 0)  -->
<svg version="1.1" id="Ebene_1" xmlns="http://www.w3.org/2000/svg" xmlns:xlink="http://www.w3.org/1999/xlink" x="0px" y="0px"
	 viewBox="0 0 222 200" style="enable-background:new 0 0 222 200;" xml:space="preserve">
<style type="text/css">
	.st0{fill:#FFFFFF;}
	.st1{fill:#0299AC;}
</style>
<g>
	<path class="st0" d="M222,99.5c0.1-3.9-1.8-6.1-5.7-6.8c-3.9-0.7-7.9-1.4-11.8-2.1c-3.6-0.7-7.2-1.4-10.9-2
		c-1.2-0.2-1.5-0.5-1.8-1.4c-2.4-5.9-4.7-11.2-6.9-16.2c-0.4-0.8-0.4-1.2,0.3-2.2c2.2-3.2,4.4-6.4,6.6-9.5c2.3-3.3,4.6-6.8,7-10.1
		c2.1-2.9,1.8-5.7-0.7-8.1c-5.7-5.6-11.4-11.2-16.8-16.8c-2.6-2.6-5.4-2.9-8.4-0.8c-3.6,2.5-7.3,5-10.8,7.5c-3,2.1-6.2,4.2-9.3,6.4
		c-0.8,0.6-1.1,0.6-2,0.2c-6-2.6-10.9-4.6-15.5-6.3c-1-0.4-1.3-0.7-1.5-2c-0.7-3.8-1.4-7.7-2.1-11.5c-0.8-4-1.5-8.2-2.2-12.2
		c-0.6-3.7-2.7-5.5-6.4-5.4c-7.3,0.1-15,0.1-23.8,0c-3.6,0-5.7,1.7-6.3,5.2c-0.7,4-1.5,8.1-2.2,12.1c-0.7,3.9-1.5,8-2.2,12
		c-0.2,1.2-0.5,1.5-1.6,1.9c-5.1,1.9-10.2,4-15.3,6.3c-1,0.4-1.4,0.4-2.5-0.3c-3.2-2.2-6.4-4.4-9.5-6.6c-3.3-2.3-6.8-4.6-10.1-7
		c-3.2-2.2-6-2-8.6,0.7C35.2,30,29.7,35.6,24.2,40.9c-2.7,2.6-3,5.4-0.7,8.6c2.4,3.4,4.8,6.8,7.1,10.2c2.1,3,4.2,6.1,6.3,9.2
		c0.6,0.9,0.6,1.2,0.2,2.2c-2.3,5-4.6,10.4-6.8,16c-0.4,1.1-0.8,1.4-2,1.6c-4.2,0.7-8.5,1.5-12.6,2.3c-3.5,0.7-7.1,1.3-10.6,1.9
		C1.7,93.5,0,95.5,0,99c0.1,9.3,0.1,17,0,24.1c-0.1,5.4,4.1,6.1,5.5,6.4c3.9,0.7,7.8,1.4,11.6,2.1c3.4,0.6,7,1.3,10.5,1.9
		c1.3,0.2,1.6,0.6,2,1.5c2,5.5,4.3,11.1,6.9,17.2c0.4,1,0.4,1.4-0.2,2.3c-2.2,3.1-4.4,6.4-6.5,9.5c-2.1,3-4.2,6.2-6.4,9.2
		c-2,2.8-1.8,5.5,0.7,7.9c6,5.8,11.8,11.6,17.2,17.2c1.3,1.4,2.7,2,4.2,2c1.2,0,2.5-0.5,3.7-1.4c1.4-1,2.9-2,4.5-3
		c2.8-1.8,5.7-3.7,8.2-6c4.9-4.4,8.5-4.6,13-0.9c1.6,1.4,3.3,1.8,4.8,1.5c2.2-0.6,3.2-2.6,3.8-4c6.7-16.4,12.2-29.8,17.5-42.2
		c1.7-3.9,0.8-6.6-2.9-8.8c-9.1-5.6-14.2-13.6-14.4-22.4c0-14.1,8.5-25.5,21.2-28.4c12.4-2.9,25.3,3.4,30.8,14.8
		c5.5,11.5,2.2,25.5-7.8,33.3c-1.6,1.2-3.2,2.4-4.9,3.5c-3.4,2.1-3.1,4.9-2.3,6.8c6.1,14.5,12.2,29.4,18.4,44.3
		c0.7,1.6,1.6,2.6,2.9,3.1c1.9,0.7,3.7-0.3,4.3-0.7c1-0.6,2-1.1,3-1.6c1.3-0.7,2.6-1.3,3.8-2.1c0.6-0.3,0.7-0.4,1.6,0.2
		c3,2.1,6,4.2,9,6.2c3.1,2.1,6.3,4.3,9.5,6.6c2.8,2,5.5,1.7,7.9-0.7c6.5-6.7,11.9-12.1,17-17c3.9-3.8,1.4-7.2,0.6-8.4
		c-2-2.9-4-5.8-6-8.7c-2.1-3.1-4.3-6.2-6.5-9.3c-0.8-1.2-0.9-1.8-0.4-3c2.2-5.2,4.4-10.7,6.7-16.7c0.4-1.2,0.8-1.5,2.1-1.7
		c3.6-0.6,7.3-1.3,10.8-2c3.7-0.7,7.5-1.4,11.2-2c3.7-0.6,5.5-2.7,5.4-6.4C221.9,113.8,221.9,106.4,222,99.5z"/>
	<path class="st1" d="M219.2,99.4c0.1-2.6-0.9-3.5-3.3-3.9c-7.6-1.3-15.1-2.8-22.6-4.1c-2-0.3-3.2-1.2-4-3.1
		c-2.2-5.4-4.5-10.8-6.9-16.1c-0.9-1.9-0.6-3.4,0.6-5c4.6-6.5,9-13.1,13.6-19.6c1.2-1.8,1.2-2.9-0.4-4.4
		c-5.7-5.6-11.3-11.2-16.9-16.9c-1.6-1.6-2.8-1.8-4.6-0.5c-6.7,4.7-13.4,9.2-20.1,13.9c-1.6,1.1-3,1.3-4.8,0.5
		c-5.1-2.2-10.2-4.3-15.4-6.3c-2.1-0.8-2.9-2-3.3-4.2c-1.4-7.9-3-15.8-4.4-23.8c-0.4-2.2-1.2-3.1-3.5-3C115,3,107,3,99,2.9
		c-2.1,0-3.1,0.7-3.4,2.8c-1.4,8-3,16-4.4,24c-0.4,2.2-1.3,3.3-3.4,4.1c-5.1,2-10.2,4-15.2,6.2c-2,0.9-3.5,0.6-5.3-0.6
		c-6.5-4.6-13.1-9-19.6-13.6c-1.9-1.4-3.2-1.4-4.9,0.4c-5.5,5.7-11,11.2-16.7,16.7c-1.8,1.7-1.7,3-0.3,4.9c4.6,6.4,8.9,13,13.4,19.4
		c1.2,1.7,1.3,3.1,0.5,5c-2.4,5.2-4.6,10.5-6.8,15.9c-0.8,2-2,3-4.2,3.4c-7.7,1.3-15.5,2.9-23.2,4.2c-2,0.3-2.7,1.2-2.7,3.2
		C3,107,3,115,2.9,123.1c0,2.4,0.9,3.1,3.1,3.5c7.4,1.3,14.7,2.7,22.1,4c2.1,0.4,3.4,1.2,4.2,3.3c2.1,5.7,4.4,11.4,6.8,17.1
		c0.8,1.9,0.6,3.4-0.5,5c-4.4,6.2-8.6,12.5-12.9,18.7c-1.2,1.6-1.1,2.7,0.3,4.2c5.8,5.7,11.6,11.5,17.3,17.3
		c1.5,1.5,2.6,1.5,4.2,0.3c4.1-3,8.7-5.4,12.5-8.8c5.6-5.1,10.9-5.9,16.8-1c2,1.7,3.2,1,4.2-1.4c5.7-14.1,11.5-28.2,17.5-42.2
		c1.1-2.6,0.6-3.8-1.7-5.3c-9.9-6.1-15.5-14.8-15.8-24.8c0-15.9,9.7-28.1,23.4-31.3c13.7-3.2,28,3.7,34.1,16.4
		c6.1,12.8,2.5,28.1-8.6,36.8c-1.7,1.3-3.4,2.5-5.2,3.6c-1.3,0.8-1.8,1.7-1.2,3.3c3.1,7.4,6.2,14.9,9.3,22.3
		c4.8-3.1,8.6-6.3,10.8-8.4l-1.2-1.6l-2.5,1.9c-1.1,0.9-2.8,0.7-3.6-0.5l-6.6-8.7c-0.9-1.1-0.7-2.8,0.5-3.6l13.8-10.5
		c0.8-0.6,2.1-0.5,2.7,0.4l0.3,0.4l4.4-2.8l1.6,2.1l2.4-1.6l-0.1-0.2c-0.5-0.6-0.4-1.5,0.3-2c0.6-0.5,1.5-0.4,2,0.3l0.2,0.3l2.4-1.6
		l-0.4-0.5c-0.5-0.6-0.4-1.5,0.3-2c0.6-0.5,1.5-0.4,2,0.3l0.5,0.6l2.3-1.5c-0.4-1.7,0.2-3.6,1.7-4.7c2-1.5,4.9-1.2,6.5,0.9
		c1.5,2,1.2,4.9-0.9,6.5c-1.5,1.1-3.4,1.2-5,0.4l-2,1.8l0.5,0.6c0.5,0.6,0.4,1.5-0.3,2c-0.6,0.5-1.5,0.4-2-0.3l-0.4-0.5l-2.2,1.9
		l0.2,0.3c0.5,0.6,0.4,1.5-0.3,2c-0.6,0.5-1.5,0.4-2-0.3l-0.1-0.2l-2.2,1.9l1.6,2.1l-3.9,3.5c0.6,0.8,0.4,2-0.4,2.7l-5.5,4.2
		l5.1,6.7c1.2,1.6,0.9,3.9-0.7,5.1c-1.6,1.2-3.9,0.9-5.1-0.7l-0.8-1c-2.6,2.3-6.8,5.8-12,9.1c2.4,5.7,4.7,11.4,7.1,17.2
		c0.7,1.7,1.6,1.8,3.1,1c2.2-1.3,4.6-2.4,6.8-3.7c1.7-1,3.1-0.8,4.7,0.3c6.1,4.3,12.3,8.4,18.4,12.8c1.7,1.2,2.8,1,4.2-0.4
		c5.6-5.8,11.3-11.5,17.1-17.1c1.7-1.6,1.6-2.9,0.3-4.6c-4.2-5.9-8.2-12-12.4-18c-1.4-1.9-1.7-3.6-0.7-5.8c2.4-5.5,4.5-11,6.6-16.6
		c0.8-2.2,2-3.2,4.3-3.6c7.4-1.3,14.7-2.8,22.1-4c2.2-0.4,3-1.3,3-3.6C219,115.2,219,107.3,219.2,99.4z"/>
</g>
</svg>
